<?xml version="1.0" standalone="no"?>
<!DOCTYPE svg PUBLIC "-//W3C//DTD SVG 20010904//EN"
 "http://www.w3.org/TR/2001/REC-SVG-20010904/DTD/svg10.dtd">
<svg version="1.0" xmlns="http://www.w3.org/2000/svg"
 width="4762.000000pt" height="1182.000000pt" viewBox="0 0 4762.000000 1182.000000"
 preserveAspectRatio="xMidYMid meet">

<g transform="translate(0.000000,1182.000000) scale(0.100000,-0.100000)"
fill="#000000" stroke="none">
<path d="M12872 11773 c-17 -57 -29 -146 -52 -373 -31 -313 -62 -510 -149
-946 -110 -551 -167 -775 -297 -1169 -241 -729 -560 -1382 -947 -1940 -220
-317 -349 -471 -683 -820 -356 -371 -1083 -1054 -1339 -1257 -312 -247 -919
-607 -1404 -833 -540 -252 -962 -375 -1195 -350 -57 6 -73 12 -128 54 -104 79
-300 256 -533 480 -240 232 -321 298 -436 360 -173 93 -266 111 -578 111 -343
0 -1072 -28 -1680 -65 -134 -8 -246 -14 -248 -12 -6 6 107 187 175 282 36 50
140 185 232 300 92 116 196 251 232 301 105 148 177 301 193 406 l7 43 341 1
c505 1 903 31 1039 78 39 14 87 36 107 50 20 14 45 26 54 26 9 0 99 -36 199
-81 410 -182 592 -236 953 -285 191 -26 511 -24 665 4 282 51 498 164 632 329
103 126 148 232 149 352 l0 66 70 34 c51 24 92 55 148 110 131 130 187 213
495 736 98 167 169 261 225 299 55 38 111 90 111 105 0 12 -53 28 -222 66
-149 33 -219 69 -575 293 -531 332 -791 435 -1108 436 -169 0 -208 -9 -459
-106 -372 -143 -402 -143 -766 3 -220 87 -287 103 -455 102 -267 0 -444 -58
-825 -271 -123 -69 -207 -120 -495 -303 -55 -34 -134 -77 -175 -93 -74 -30
-77 -30 -265 -30 -104 0 -294 4 -422 8 -256 10 -355 2 -501 -40 -155 -45 -258
-111 -392 -250 -132 -137 -207 -244 -610 -869 -380 -590 -459 -708 -768 -1150
-598 -854 -1024 -1415 -1164 -1533 -22 -19 -28 -32 -28 -63 0 -43 5 -46 75
-29 76 18 326 50 587 75 568 54 750 89 1543 290 927 235 1030 251 1715 265
267 5 554 17 675 27 296 25 720 25 834 0 230 -50 339 -123 709 -477 114 -109
246 -231 293 -271 48 -41 129 -112 180 -158 160 -144 1587 -1482 1591 -1490 2
-5 81 -91 177 -192 295 -312 598 -678 656 -793 32 -63 35 -76 35 -155 0 -175
-14 -191 -96 -118 -69 61 -464 381 -557 451 -43 33 -125 111 -181 175 -123
138 -185 198 -461 441 -315 277 -437 400 -670 675 -277 326 -358 415 -457 502
-82 71 -137 108 -538 366 -276 178 -714 530 -879 706 -173 185 -271 250 -428
282 -56 12 -73 10 -226 -20 -164 -32 -771 -165 -981 -215 -142 -34 -580 -163
-771 -227 -232 -78 -373 -138 -725 -306 -938 -449 -1450 -658 -2030 -831 l-65
-20 0 -38 c0 -24 4 -38 11 -37 7 1 232 78 500 171 386 134 535 190 709 270
121 55 317 143 436 196 119 52 335 152 480 222 388 186 486 227 794 327 299
98 642 189 1055 281 811 180 801 179 911 124 52 -26 105 -72 294 -258 300
-296 426 -395 823 -650 488 -314 522 -338 651 -464 68 -67 167 -175 221 -241
270 -334 461 -535 786 -830 104 -95 291 -271 415 -391 213 -208 224 -221 226
-259 23 -370 59 -506 171 -654 46 -61 328 -332 389 -374 49 -34 149 -76 181
-77 31 0 28 -10 -22 -77 -167 -220 -422 -245 -786 -75 -190 88 -546 311 -839
526 -158 115 -515 396 -519 407 -2 5 5 9 15 9 10 0 81 5 159 10 162 10 202 22
321 99 170 109 263 249 302 454 26 137 27 213 2 250 -23 35 -45 50 -251 169
-197 114 -242 136 -427 217 -112 49 -163 78 -248 142 -255 192 -559 379 -810
499 -205 99 -370 162 -840 320 -231 78 -568 197 -750 265 -511 190 -661 237
-817 254 -193 22 -309 -20 -643 -231 -218 -137 -375 -230 -785 -460 -949 -534
-1779 -972 -2040 -1079 l-80 -33 0 -39 c0 -37 2 -39 25 -33 91 23 346 146 610
296 105 59 300 163 435 230 664 332 1249 663 1870 1058 317 202 438 237 676
197 127 -22 255 -64 824 -269 278 -101 633 -227 790 -280 347 -119 570 -206
755 -295 350 -168 783 -473 860 -605 13 -23 37 -80 53 -127 86 -256 378 -510
592 -513 36 -1 75 3 87 7 20 7 21 6 13 -22 -17 -61 -77 -158 -136 -221 -235
-249 -555 -250 -1304 -1 -227 76 -401 145 -575 230 -150 74 -168 89 -242 196
-27 38 -53 70 -59 72 -6 2 -28 -11 -50 -28 -73 -59 -107 -69 -239 -69 -272 0
-1034 73 -1305 125 -99 19 -198 35 -218 35 -33 0 -57 -17 -222 -156 -573 -483
-715 -564 -1035 -594 -164 -15 -275 -43 -275 -69 0 -19 53 -50 98 -57 57 -9
203 9 335 40 l97 23 0 -25 c0 -42 -48 -263 -75 -346 -36 -111 -105 -240 -169
-318 -68 -82 -171 -160 -374 -282 -202 -121 -352 -231 -352 -257 0 -16 7 -19
48 -18 26 0 65 8 87 17 46 20 394 265 503 355 200 165 307 370 392 749 35 157
68 195 330 379 86 60 194 140 240 178 253 209 321 263 347 276 43 23 136 18
295 -15 113 -23 201 -33 401 -45 141 -8 325 -26 409 -39 356 -56 466 -56 643
-1 73 22 80 23 89 8 20 -36 94 -107 150 -145 147 -100 381 -194 784 -313 312
-93 461 -141 527 -170 49 -22 153 -100 290 -219 39 -34 117 -95 175 -137 231
-166 510 -360 600 -416 89 -56 595 -334 845 -465 234 -122 426 -181 590 -182
176 -1 281 48 499 233 60 51 142 117 183 147 40 30 83 69 93 87 51 83 -5 223
-165 413 -259 306 -381 429 -590 594 -70 54 -97 86 -207 244 -159 227 -382
498 -563 686 -77 80 -253 264 -392 410 -138 146 -305 315 -371 375 -66 61
-291 268 -500 460 l-381 350 37 7 c20 4 84 14 141 23 647 103 1490 497 2293
1072 261 186 461 368 1420 1290 82 78 179 177 216 220 37 43 105 121 151 173
46 52 107 128 134 167 28 40 53 71 55 69 14 -15 19 -91 11 -160 -5 -45 -18
-191 -29 -326 -11 -135 -34 -396 -50 -580 -86 -981 -96 -1432 -45 -1929 54
-513 184 -1059 361 -1509 81 -207 145 -330 199 -387 39 -40 88 -65 101 -52 11
11 -27 90 -80 166 -188 266 -357 809 -460 1481 -63 408 -81 667 -72 1055 8
381 18 535 71 1120 25 270 49 576 55 680 31 564 24 540 214 825 156 234 269
421 364 600 97 184 375 835 457 1072 45 128 244 812 289 993 62 248 189 950
226 1244 29 239 25 491 -9 491 -4 0 -13 -17 -19 -37z m-5302 -2905 c225 -54
600 -244 979 -495 107 -72 214 -134 280 -163 105 -46 191 -89 181 -90 -3 0
-66 -14 -140 -31 -130 -30 -147 -31 -455 -39 -368 -9 -387 -12 -750 -105 -582
-149 -893 -185 -1115 -126 -41 10 -142 51 -225 89 -82 39 -177 77 -210 86 -33
9 -325 59 -650 112 -619 100 -738 113 -1055 114 -80 0 -155 3 -167 6 -22 6
-21 8 15 36 158 128 551 357 837 490 240 111 377 144 572 136 144 -6 228 -27
454 -114 211 -81 274 -97 374 -96 74 0 99 7 325 85 258 89 343 113 443 127 84
11 205 3 307 -22z m-3790 -688 c113 -11 385 -27 604 -35 445 -17 503 -22 726
-64 85 -16 279 -46 430 -65 369 -48 497 -71 604 -107 166 -56 349 -152 601
-317 147 -96 237 -146 295 -163 40 -12 40 -12 40 -63 0 -150 81 -298 225 -413
98 -78 352 -252 397 -273 65 -30 155 -26 278 10 56 17 105 29 108 26 10 -11
-61 -136 -113 -198 -188 -229 -530 -340 -995 -325 -210 7 -400 34 -605 87
-190 48 -303 90 -530 197 -99 46 -201 94 -227 105 l-47 20 -85 -52 c-98 -60
-166 -83 -291 -99 -119 -15 -1073 -40 -1105 -28 -39 13 -69 47 -105 117 -36
71 -74 113 -117 129 -41 15 -37 -3 30 -130 l57 -111 0 -91 c0 -83 -3 -99 -32
-160 -31 -65 -746 -1058 -817 -1135 -45 -49 -65 -57 -236 -91 -85 -17 -258
-58 -385 -90 -1186 -303 -1175 -301 -1920 -376 -198 -20 -368 -38 -377 -41
-10 -3 -18 -2 -18 2 0 4 71 95 158 203 381 471 1524 2117 1871 2694 302 502
435 653 672 767 211 101 425 117 909 70z m5092 -313 c-55 -83 -134 -213 -175
-288 -149 -270 -242 -404 -356 -511 -67 -63 -175 -128 -214 -128 -10 0 -57 27
-103 60 -187 136 -408 253 -749 400 -221 95 -366 166 -433 212 -64 44 -122 90
-122 98 0 4 60 12 133 18 260 24 504 67 850 153 283 70 345 78 672 89 279 9
452 26 546 53 24 7 46 10 47 5 2 -4 -41 -77 -96 -161z m-1531 -567 c110 -36
241 -99 369 -176 111 -66 380 -254 380 -264 0 -4 -13 -26 -30 -48 -79 -109
-228 -110 -410 -2 -129 76 -294 196 -358 260 -72 72 -124 161 -137 234 l-6 39
51 -7 c28 -4 91 -20 141 -36z m-329 -4756 c40 -15 111 -46 158 -69 122 -62
401 -223 427 -247 54 -50 46 -112 -25 -188 l-47 -50 -63 15 c-113 27 -223 97
-333 211 -77 81 -120 142 -159 227 -29 61 -48 127 -37 127 3 0 39 -12 79 -26z
m1521 -926 c221 -150 638 -553 757 -731 l41 -61 -28 -22 c-61 -49 -135 -78
-203 -78 -114 -1 -206 56 -411 256 -192 188 -278 368 -295 619 l-7 101 44 -22
c24 -13 70 -41 102 -62z m722 -232 c98 -78 361 -346 472 -479 90 -109 160
-210 197 -283 43 -88 43 -89 -14 -144 -107 -104 -185 -85 -396 98 -101 87
-128 136 -119 215 6 50 4 65 -19 110 -14 29 -65 95 -113 147 -111 122 -138
178 -130 269 6 67 23 131 36 131 4 0 43 -29 86 -64z m100 -741 c64 -93 194
-209 285 -252 43 -21 79 -42 79 -47 2 -21 -85 -120 -140 -161 -89 -65 -154
-87 -283 -93 -168 -7 -288 20 -536 121 l-124 51 52 24 c28 13 84 32 123 43 96
27 187 69 232 108 20 18 57 66 82 106 26 40 60 84 78 98 38 29 88 56 103 57 6
0 28 -25 49 -55z"/>
<path d="M45274 9968 c-11 -149 -8 -409 7 -540 21 -185 26 -168 -61 -196 -41
-13 -110 -28 -152 -35 -182 -26 -355 48 -449 194 -18 27 -34 47 -36 45 -9 -9
88 -245 158 -386 263 -526 633 -893 1084 -1075 96 -39 338 -105 383 -105 15 0
73 -22 128 -49 294 -142 601 -217 1049 -256 l50 -4 -65 32 c-89 44 -183 140
-237 244 l-43 80 99 26 c55 15 166 50 247 79 l149 53 -85 7 c-146 11 -201 37
-410 197 -168 128 -307 171 -435 134 -11 -3 20 36 71 88 108 112 159 178 212
279 59 109 75 174 70 284 -3 83 -7 100 -41 168 -29 60 -55 92 -118 152 -94 89
-163 125 -305 160 -150 38 -235 47 -524 56 -214 7 -280 12 -341 28 -212 56
-336 176 -375 364 -8 40 -17 74 -18 76 -2 2 -7 -43 -12 -100z"/>
<path d="M16840 6790 l0 -2350 263 0 262 0 -4 1087 c-2 599 0 1602 4 2231 l7
1143 667 -3 c646 -4 669 -4 774 -26 354 -74 636 -235 900 -511 353 -371 548
-819 634 -1451 22 -168 26 -684 5 -850 -73 -589 -242 -1070 -511 -1451 -170
-240 -428 -451 -726 -595 -304 -146 -591 -200 -967 -182 -399 20 -827 150
-1333 406 -359 182 -514 300 -1025 777 -694 649 -1171 1082 -1293 1174 -228
171 -550 348 -777 426 -595 205 -1173 135 -1741 -211 -60 -37 -109 -68 -109
-69 0 -2 33 10 74 25 247 95 543 136 800 111 609 -60 1208 -387 1900 -1037
706 -663 1211 -1040 1791 -1334 473 -239 870 -357 1445 -427 207 -25 721 -25
905 1 591 81 1066 282 1489 630 337 277 655 803 776 1286 61 243 81 417 81
700 -1 583 -141 1143 -402 1603 -405 713 -988 1125 -1744 1232 -81 12 -293 15
-1122 15 l-1023 0 0 -2350z"/>
<path d="M31055 9064 c-590 -47 -1079 -216 -1469 -507 -101 -76 -279 -248
-359 -347 -262 -324 -424 -733 -483 -1221 -20 -165 -23 -555 -5 -719 49 -447
170 -800 382 -1118 375 -564 1035 -918 1853 -993 178 -16 520 -6 701 21 350
52 712 176 933 319 l62 41 0 80 c0 44 -2 80 -4 80 -3 0 -39 -25 -81 -55 -104
-74 -373 -206 -520 -254 -253 -83 -498 -121 -775 -121 -811 0 -1427 345 -1745
978 -130 259 -206 531 -252 902 -25 207 -25 707 1 905 68 528 220 908 496
1238 343 410 914 657 1517 657 323 0 665 -56 954 -155 57 -20 169 -69 249
-108 80 -40 148 -73 153 -75 4 -2 7 32 7 76 l0 79 -91 42 c-244 114 -536 193
-870 236 -119 16 -541 28 -654 19z"/>
<path d="M34092 6682 c-584 -1313 -1062 -2393 -1062 -2400 0 -17 266 -17 277
1 4 6 186 406 405 887 l397 875 878 3 878 2 394 -867 c216 -478 400 -878 407
-890 14 -23 15 -23 293 -23 153 0 280 2 283 5 3 3 -456 1083 -1020 2400 -903
2108 -1029 2395 -1047 2395 -19 0 -154 -299 -1083 -2388z m1332 650 c186 -504
349 -945 362 -979 l23 -63 -804 0 -803 0 436 980 c240 539 439 980 442 980 3
0 157 -413 344 -918z"/>
<path d="M21690 6625 l0 -2355 1188 2 1187 3 3 118 3 117 -926 0 -925 0 0
1025 0 1025 825 0 825 0 0 120 0 120 -825 0 -825 0 0 975 0 975 925 0 925 0 0
115 0 115 -1190 0 -1190 0 0 -2355z"/>
<path d="M24640 6625 l0 -2355 1198 2 1197 3 3 118 3 117 -936 0 -935 0 0
2235 0 2235 -265 0 -265 0 0 -2355z"/>
<path d="M27650 6625 l0 -2355 265 0 265 0 0 2355 0 2355 -265 0 -265 0 0
-2355z"/>
<path d="M36500 8865 l0 -115 720 0 720 0 2 -2237 3 -2238 265 0 265 0 3 2238
2 2237 720 0 720 0 0 115 0 115 -1710 0 -1710 0 0 -115z"/>
<path d="M40530 7734 l0 -1246 -117 6 c-250 15 -479 68 -645 152 -235 118
-422 317 -529 564 -35 81 -36 62 -3 -65 110 -425 381 -733 775 -879 110 -40
303 -81 431 -91 l88 -7 2 -947 3 -946 1188 -3 1187 -2 0 120 0 120 -925 0
-925 0 0 840 c0 664 3 841 13 844 6 2 66 13 132 24 251 44 537 135 1280 405
743 270 954 335 1375 422 928 191 1723 187 2405 -10 459 -134 850 -351 1226
-685 l74 -65 -80 93 c-366 432 -887 751 -1468 902 -171 44 -307 70 -512 97
-200 26 -817 26 -1055 0 -652 -72 -1169 -191 -2055 -476 -407 -130 -596 -186
-810 -241 -194 -50 -470 -110 -505 -110 -20 0 -20 13 -18 1098 l3 1097 923 3
922 2 0 115 0 115 -1190 0 -1190 0 0 -1246z"/>
<path d="M45100 8039 c-74 -8 -221 -49 -250 -70 -13 -9 -12 -10 3 -5 105 34
150 40 287 40 171 1 259 -19 406 -88 91 -44 209 -114 202 -121 -2 -2 -71 7
-153 21 -195 33 -412 42 -513 20 -83 -17 -183 -59 -209 -88 -14 -16 -9 -14 27
6 130 74 332 75 715 1 l250 -48 73 -66 c263 -238 515 -400 767 -495 89 -33
249 -74 317 -80 51 -5 52 -5 13 4 -319 80 -711 302 -981 555 l-49 46 35 -7
c74 -14 345 -107 451 -155 198 -89 391 -220 524 -353 71 -72 58 -42 -19 44
-222 248 -558 431 -982 535 -103 25 -118 32 -190 86 -216 163 -486 244 -724
218z"/>
<path d="M44640 7948 c-25 -41 -26 -84 -2 -96 45 -24 107 52 84 103 -17 37
-57 34 -82 -7z"/>
<path d="M44719 7700 c-37 -22 -49 -110 -17 -123 44 -16 101 61 80 108 -12 26
-35 31 -63 15z"/>
<path d="M29244 3300 c-117 -30 -201 -77 -280 -155 -145 -143 -215 -329 -214
-569 2 -409 242 -688 615 -713 364 -24 636 191 706 557 20 107 15 301 -10 404
-58 241 -226 420 -446 476 -103 26 -271 27 -371 0z m321 -145 c168 -44 288
-184 331 -385 24 -115 15 -331 -19 -428 -65 -188 -194 -296 -384 -324 -266
-39 -483 116 -550 390 -22 91 -22 276 0 362 52 200 185 345 352 386 71 17 201
17 270 -1z"/>
<path d="M30780 3304 c-176 -37 -336 -162 -418 -325 -65 -129 -84 -217 -86
-389 -1 -171 15 -250 76 -379 33 -69 56 -101 122 -166 89 -88 165 -132 276
-162 80 -21 269 -24 356 -4 l61 13 135 -101 135 -101 141 0 c78 0 142 3 141 8
0 4 -85 68 -190 142 -104 74 -189 136 -189 137 0 1 31 33 68 71 232 235 270
713 80 997 -124 187 -299 276 -537 274 -58 0 -135 -7 -171 -15z m303 -149
c115 -30 192 -86 259 -189 60 -93 79 -168 85 -338 8 -228 -31 -361 -142 -477
-176 -185 -500 -187 -679 -6 -107 109 -156 249 -156 445 0 197 42 317 152 435
93 100 195 143 343 144 45 1 107 -6 138 -14z"/>
<path d="M35102 3300 c-137 -37 -237 -111 -287 -215 -22 -44 -27 -67 -26 -132
0 -92 17 -148 66 -212 48 -63 118 -112 305 -211 224 -119 284 -171 300 -260
26 -144 -67 -241 -246 -256 -125 -10 -307 34 -393 95 -16 12 -32 21 -35 21 -3
0 -6 -42 -6 -94 l0 -94 33 -15 c93 -43 266 -72 380 -64 211 16 348 90 413 224
25 51 29 69 29 148 0 78 -4 98 -27 146 -54 108 -144 179 -387 305 -198 102
-261 167 -261 269 0 86 42 144 135 187 44 20 66 23 175 23 104 0 136 -4 191
-23 36 -12 75 -29 85 -37 10 -8 23 -15 27 -15 4 0 6 42 5 93 l-3 92 -55 19
c-85 29 -320 33 -418 6z"/>
<path d="M38745 3310 c-232 -50 -366 -199 -353 -391 9 -117 71 -212 192 -287
33 -22 128 -75 210 -118 165 -88 224 -133 255 -197 56 -116 -9 -251 -138 -288
-25 -8 -90 -14 -146 -14 -116 1 -211 25 -312 81 l-63 34 0 -95 0 -94 30 -16
c49 -25 189 -55 290 -62 227 -14 423 71 502 219 20 37 23 57 23 148 0 91 -3
111 -25 155 -51 105 -156 186 -399 311 -164 84 -223 136 -239 210 -22 102 18
183 114 230 108 53 324 43 446 -21 26 -14 50 -25 53 -25 3 0 4 41 3 92 l-3 92
-55 19 c-43 16 -87 21 -200 23 -80 2 -163 -1 -185 -6z"/>
<path d="M27730 3225 l0 -75 205 0 205 0 0 -635 0 -635 80 0 80 0 0 635 0 635
205 0 205 0 0 75 0 75 -490 0 -490 0 0 -75z"/>
<path d="M31873 2783 c3 -459 5 -525 21 -578 54 -185 168 -292 349 -329 140
-29 301 -13 417 42 71 33 159 122 193 194 61 129 61 128 65 681 l3 507 -85 0
-86 0 0 -484 c0 -267 -4 -506 -10 -534 -37 -195 -192 -295 -407 -263 -186 28
-271 134 -294 365 -4 50 -9 277 -9 504 l0 412 -81 0 -80 0 4 -517z"/>
<path d="M33272 2593 l3 -708 373 -3 372 -2 0 80 0 80 -290 0 -290 0 0 245 0
245 255 0 255 0 0 75 0 75 -255 0 -255 0 0 235 0 235 275 0 275 0 0 75 0 75
-360 0 -360 0 2 -707z"/>
<path d="M35922 2593 l3 -708 373 -3 372 -2 0 80 0 80 -290 0 -290 0 0 245 0
245 255 0 255 0 0 75 0 75 -255 0 -255 0 0 235 0 235 275 0 275 0 0 75 0 75
-360 0 -360 0 2 -707z"/>
<path d="M36942 2593 l3 -708 80 0 80 0 0 607 c0 520 2 603 14 580 7 -15 182
-289 389 -609 l375 -583 98 0 99 0 0 710 0 710 -80 0 -80 0 2 -600 c2 -329 0
-596 -3 -592 -3 4 -176 274 -384 600 l-377 592 -109 0 -109 0 2 -707z"/>
<path d="M39513 2783 c3 -459 5 -525 21 -578 54 -185 168 -292 349 -329 140
-29 301 -13 417 42 71 33 159 122 193 194 61 129 61 128 65 681 l3 507 -85 0
-86 0 0 -488 c0 -512 -2 -546 -47 -640 -55 -116 -204 -178 -370 -153 -186 28
-271 134 -294 365 -4 50 -9 277 -9 504 l0 412 -81 0 -80 0 4 -517z"/>
<path d="M41245 3283 c-115 -299 -524 -1372 -527 -1383 -2 -12 12 -15 87 -15
l90 0 70 198 70 197 300 0 301 0 74 -197 75 -198 88 -3 c66 -2 87 0 87 10 0 7
-120 327 -267 710 l-268 698 -86 0 c-74 0 -88 -3 -94 -17z m220 -539 c63 -170
113 -310 111 -311 -2 -2 -111 -2 -243 -1 l-240 3 104 285 c57 157 111 312 121
345 l16 59 9 -36 c5 -20 60 -175 122 -344z"/>
<path d="M42180 2590 l0 -710 363 2 362 3 0 75 0 75 -282 3 -283 2 0 630 0
630 -80 0 -80 0 0 -710z"/>
</g>
</svg>
